<?xml version="1.0" encoding="UTF-8" standalone="no"?>
<!DOCTYPE svg PUBLIC "-//W3C//DTD SVG 1.1//EN" "http://www.w3.org/Graphics/SVG/1.1/DTD/svg11.dtd">
<svg width="100%" height="100%" viewBox="0 0 298 135" version="1.1" xmlns="http://www.w3.org/2000/svg" xmlns:xlink="http://www.w3.org/1999/xlink" xml:space="preserve" xmlns:serif="http://www.serif.com/" style="fill-rule:evenodd;clip-rule:evenodd;stroke-linejoin:round;stroke-miterlimit:2;">
    <g transform="matrix(1,0,0,1,-164.38,-333.25)">
        <path d="M445.6,348.76C450.427,348.466 455.272,348.623 460.07,349.23C460.84,349.33 462.07,349.71 462.18,350.12C462.38,351.4 461.06,351.48 460.18,351.74C451.18,354.41 441.91,355.39 432.71,356.88C395.9,362.88 358.9,367.83 322.65,376.88C321.04,377.28 319.46,377.88 317.83,378.2C314.27,378.96 312.51,380.31 313.44,384.66C314.53,389.72 312.35,394.49 309.78,398.87C306.676,404.014 302.922,408.736 298.61,412.92C276.9,434.53 252.78,452.59 223.69,463.16C213.03,467.04 202.07,468.68 190.82,465.91C182.3,463.82 176.36,458.5 171.18,451.5C161.31,438.17 164.03,423.77 167.79,409.9C174.18,386.32 186.08,365.66 204.87,349.47C214.25,341.37 224.74,335.34 237.19,333.7C252.39,331.7 265.1,336.25 274.5,348.86C281.44,358.16 282.55,368.23 277.71,378.53C269.54,395.89 256.64,408.31 238.01,414.13C235.937,414.729 233.797,415.065 231.64,415.13C229.23,415.27 226.89,414.69 225.82,412.13C224.75,409.57 226.23,407.53 228.12,406.13C230.686,404.276 233.357,402.573 236.12,401.03C246.71,394.88 256.42,387.72 264.22,378.1C268.41,372.92 269.12,366.96 269.22,360.75C269.185,359.769 268.834,358.826 268.22,358.06C259.22,346.56 246.02,342.46 231.99,346.78C221.5,350.01 213.13,356.53 205.54,364.17C189.142,380.509 178.255,401.573 174.41,424.4C173.853,428.033 173.907,431.734 174.57,435.35C176.66,448.52 185.37,456.35 198.69,456.95C205.547,457.178 212.38,456.007 218.77,453.51C249.84,441.86 275.77,422.68 297.83,398.23C302.22,393.37 305.55,388.01 303.42,380.57C302.04,375.72 305.87,372.96 309.95,371.26C320.3,366.94 331.19,364.39 342.14,362.26C376.318,355.649 410.87,351.14 445.6,348.76Z" style="fill-rule:nonzero;"/>
    </g>
    <g transform="matrix(1,0,0,1,-164.38,-333.25)">
        <path d="M242.54,375.72C242.72,379.53 240.19,381.21 237.33,379.62C236.35,379.003 235.487,378.217 234.78,377.3C230.54,372.3 230.56,372.3 226.78,378.08C226.24,378.91 225.7,379.75 225.12,380.56C224.54,381.37 223.75,382.13 222.64,381.69C221.94,381.389 221.484,380.697 221.484,379.935C221.484,379.676 221.537,379.419 221.64,379.18C223.09,373.85 225.07,368.76 229.2,364.89C230.924,363.147 233.726,363.003 235.62,364.56C239.52,367.45 241.2,371.79 242.54,375.72Z" style="fill-rule:nonzero;"/>
    </g>
</svg>
