<svg id="Layer_1" data-name="Layer 1" xmlns="http://www.w3.org/2000/svg" viewBox="0 0 297.82 134.05"><defs><style>.cls-1{fill:#fff;}</style></defs><path class="cls-1" d="M445.6,348.76a77.7,77.7,0,0,1,14.47.47c.77.1,2,.48,2.11.89.2,1.28-1.12,1.36-2,1.62-9,2.67-18.27,3.65-27.47,5.14-36.81,6-73.81,10.95-110.06,20-1.61.4-3.19,1-4.82,1.32-3.56.76-5.32,2.11-4.39,6.46,1.09,5.06-1.09,9.83-3.66,14.21a69.89,69.89,0,0,1-11.17,14.05c-21.71,21.61-45.83,39.67-74.92,50.24-10.66,3.88-21.62,5.52-32.87,2.75-8.52-2.09-14.46-7.41-19.64-14.41-9.87-13.33-7.15-27.73-3.39-41.6,6.39-23.58,18.29-44.24,37.08-60.43,9.38-8.1,19.87-14.13,32.32-15.77,15.2-2,27.91,2.55,37.31,15.16,6.94,9.3,8.05,19.37,3.21,29.67-8.17,17.36-21.07,29.78-39.7,35.6a25.78,25.78,0,0,1-6.37,1c-2.41.14-4.75-.44-5.82-3s.41-4.6,2.3-6a81.63,81.63,0,0,1,8-5.1c10.59-6.15,20.3-13.31,28.1-22.93,4.19-5.18,4.9-11.14,5-17.35a4.56,4.56,0,0,0-1-2.69c-9-11.5-22.2-15.6-36.23-11.28-10.49,3.23-18.86,9.75-26.45,17.39a111.07,111.07,0,0,0-31.13,60.23,33,33,0,0,0,.16,10.95c2.09,13.17,10.8,21,24.12,21.6a50.55,50.55,0,0,0,20.08-3.44c31.07-11.65,57-30.83,79.06-55.28,4.39-4.86,7.72-10.22,5.59-17.66-1.38-4.85,2.45-7.61,6.53-9.31,10.35-4.32,21.24-6.87,32.19-9A851.2,851.2,0,0,1,445.6,348.76Z" transform="translate(-164.38 -333.25)"/><path class="cls-1" d="M242.54,375.72c.18,3.81-2.35,5.49-5.21,3.9a9.84,9.84,0,0,1-2.55-2.32c-4.24-5-4.22-5-8,.78-.54.83-1.08,1.67-1.66,2.48s-1.37,1.57-2.48,1.13a1.91,1.91,0,0,1-1-2.51c1.45-5.33,3.43-10.42,7.56-14.29a4.77,4.77,0,0,1,6.42-.33C239.52,367.45,241.2,371.79,242.54,375.72Z" transform="translate(-164.38 -333.25)"/></svg>